<svg xmlns="http://www.w3.org/2000/svg" viewBox="0 0 64 64">
  <rect width="64" height="64" rx="14" fill="#030805"/>
  <path d="M12 19 5 8l16 6A28 28 0 0 1 32 12a28 28 0 0 1 11 2L59 8l-7 11a25 25 0 0 1 3 12c0 15-10 25-23 25S9 46 9 31a25 25 0 0 1 3-12Z" fill="#0a2618"/>
  <path d="M13 20 7 10l15 6M51 20l6-10-15 6" fill="none" stroke="#78f6a5" stroke-width="3.5" stroke-linecap="round" stroke-linejoin="round"/>
  <path d="M16 29c5-6 10-8 16-8s11 2 16 8c-4 11-9 17-16 17S20 40 16 29Z" fill="none" stroke="#78f6a5" stroke-width="3.5" stroke-linejoin="round"/>
  <path d="M17 28c5 0 10 2 15 7 5-5 10-7 15-7M24 31l5 3-5 3-5-3 5-3Zm16 0 5 3-5 3-5-3 5-3Z" fill="#78f6a5"/>
  <path d="m29 41 3 2 3-2" fill="none" stroke="#78f6a5" stroke-width="3" stroke-linecap="round"/>
  <circle cx="51" cy="51" r="5" fill="#78f6a5"/>
</svg>
