<svg xmlns="http://www.w3.org/2000/svg" viewBox="0 0 96 96"><rect width="96" height="96" rx="22" fill="#080a0d"/><path fill="#f5f7fb" d="M16 33 7 13l24 10A42 42 0 0 1 48 19a42 42 0 0 1 17 4l24-10-9 20c7 8 10 18 8 29-3 18-19 30-40 30S11 80 8 62c-2-11 1-21 8-29Z"/><path fill="#242a34" d="M18 39 8 19l24 12 16-8 16 8 24-12-10 20c4 6 6 13 4 21-3 15-16 25-34 25S17 75 14 60c-2-8 0-15 4-21Z"/><path fill="#090b0e" d="M19 46c7-10 16-15 29-15s22 5 29 15c-5 13-15 21-29 21S24 59 19 46Z"/><ellipse cx="33" cy="49" rx="11" ry="9" fill="#fff"/><ellipse cx="63" cy="49" rx="11" ry="9" fill="#fff"/><circle cx="34" cy="50" r="4"/><circle cx="62" cy="50" r="4"/><path fill="#fff" d="M30 63c5-5 11-7 18-7s13 2 18 7c-3 12-10 18-18 18s-15-6-18-18Z"/><path d="M40 63c2-3 5-4 8-4s6 1 8 4c-1 4-4 6-8 6s-7-2-8-6Z"/></svg>
